<?xml version="1.0" encoding="UTF-8"?>
<svg id="svg2" xmlns="http://www.w3.org/2000/svg" xmlns:svg="http://www.w3.org/2000/svg" xmlns:sodipodi="http://sodipodi.sourceforge.net/DTD/sodipodi-0.dtd" xmlns:inkscape="http://www.inkscape.org/namespaces/inkscape" version="1.1" viewBox="0 0 1701.08 258.42">
  <!-- Generator: Adobe Illustrator 30.0.0, SVG Export Plug-In . SVG Version: 2.1.1 Build 123)  -->
  <defs>
    <style>
      .st0 {
        fill: #fff;
      }
    </style>
  </defs>
  <sodipodi:namedview id="namedview4" bordercolor="#999999" borderopacity="1" fit-margin-bottom="0" fit-margin-left="0" fit-margin-right="0" fit-margin-top="0" inkscape:current-layer="g8" inkscape:cx="1158.1659" inkscape:cy="287.06676" inkscape:pagecheckerboard="0" inkscape:pageopacity="0" inkscape:pageshadow="0" inkscape:window-height="1001" inkscape:window-maximized="1" inkscape:window-width="1920" inkscape:window-x="-9" inkscape:window-y="-9" inkscape:zoom="0.65664168" pagecolor="#ffffff" showgrid="false"/>
  <g id="g8" inkscape:groupmode="layer" inkscape:label="Bezalel_academy_of_arts_and_design_new_logo">
    <g id="g10">
      <path id="path12" class="st0" d="M427.08,31.49h.48l6.75,22.3h-14.12l6.89-22.3ZM418.69,58.63h17.05l2.52,8.32h7.16l-13.98-41.8-7.63.2-14.46,41.6h6.75l2.59-8.32Z"/>
    </g>
    <path id="path24" class="st0" d="M463.09,67.7c3,0,6.48-.21,9.48-1.43l.27-5.32c-2.59.68-5.39,1.23-7.71,1.23-5.73,0-10.7-3.48-10.7-12.28,0-4.91,1.3-8.11,3.2-10.16,1.57-1.16,3.62-1.77,6.14-1.77,2.79,0,5.46.48,8.18,1.16l.41-5.25c-2.25-1.03-5.04-1.44-7.98-1.44-9.89,0-16.51,6.82-16.51,18.07s7.23,17.18,15.21,17.18"/>
    <path id="path28" class="st0" d="M498.89,58.29c-2.52,2.73-5.66,3.89-8.39,3.89-3.89,0-5.93-2.25-5.93-5.6,0-1.63.27-3.13,1.09-4.36,2.59-1.44,5.59-1.5,8.52-1.5,1.77,0,3.14.07,4.7.21v7.36ZM494.94,46.36c-3.75,0-8.18.27-11.05,1.84-3.41,1.64-5.53,5.04-5.53,9.41s2.94,9.82,10.23,9.82c3.95,0,7.43-1.57,10.37-4.43l.41.13.48,3.82h5.46v-22.3c0-8.39-4.5-12.21-12.75-12.21-3.95,0-8.05.75-11.73,1.91l-.41,5.25c3.68-1.09,7.84-1.77,11.12-1.77,6.21,0,7.43,2.66,7.43,7.98v.68c-1.3-.13-2.53-.13-4.03-.13"/>
    <path id="path32" class="st0" d="M535.38,58.49c-3.14,3.34-6.14,3.68-7.57,3.68-5.59,0-8.39-4.43-8.39-12,0-4.85,1.23-8.8,3.68-10.98,2.18-1.09,4.16-1.5,6.61-1.5,1.91,0,3.82.27,5.66.82v19.98ZM541.72,18.94l-6.34.82v13.43c-1.7-.48-3.27-.68-5.05-.68-9.21,0-17.46,6.07-17.46,18.75,0,10.5,5.52,16.23,12.89,16.23,3.14,0,6.75-1.09,9.68-4.16l.48.2.48,3.41h5.32V18.94Z"/>
    <path id="path36" class="st0" d="M559.38,39.4c1.77-1.5,4.16-1.98,6.07-1.98,4.84,0,7.23,3.14,7.43,9.61h-16.43c.41-3.68,1.63-6,2.93-7.64M566.41,67.7c2.86,0,6.89-.48,10.5-1.84l.34-4.84c-3.62,1.09-7.16,1.5-9.96,1.5-6.61,0-10.57-3.2-10.91-11.25h22.3c.41-1.91.41-3.41.41-5.18,0-8.93-5.25-13.64-13.37-13.64-10.3,0-15.75,7.71-15.75,18,0,10.98,6.28,17.25,16.44,17.25"/>
    <path id="path40" class="st0" d="M593.14,40.76c3.41-1.98,6.48-2.66,8.86-2.66,4.03,0,6,1.71,6,6.07v22.77h6.34v-23.93c0-.89,0-1.64-.14-2.32,3.55-1.91,6.55-2.59,9.07-2.59,4.02,0,5.93,1.71,5.93,6.07v22.77h6.34v-24c0-7.36-3.27-10.37-9.48-10.37-4.91,0-9.34,1.98-12.61,3.95l-.48-.21c-1.5-2.73-4.23-3.75-8.18-3.75-4.36,0-8.25,1.77-11.39,3.89l-.48-.14-.21-3.55-5.93.75v33.41h6.34v-26.19Z"/>
    <path id="path44" class="st0" d="M671.57,33.4h-6.69l-7.84,27.14h-.55l-8.87-27.14h-7.02l12.82,33.21v.48l-6.48,12.96h6.82l6.34-13.71,11.46-32.94Z"/>
    <path id="path48" class="st0" d="M697.55,40.56c1.91-1.98,3.68-2.87,6.96-2.87,5.32,0,9.27,3.75,9.27,12.2,0,4.23-.82,7.5-2.11,9.82-1.84,1.91-4.16,2.87-6.95,2.87-6.07,0-9.62-4.16-9.62-12.41,0-3.95.82-7.16,2.46-9.61M703.83,67.77c10.03,0,16.57-7.23,16.57-18.62,0-10.23-6.68-16.64-15.07-16.64-10.36,0-16.77,7.16-16.77,18.55,0,10.3,6.54,16.71,15.27,16.71"/>
    <path id="path52" class="st0" d="M730.08,66.95h6.34v-28.57h9.34l.34-4.98h-9.68v-4.98c0-1.29.13-2.45.41-3.41.95-.75,2.32-1.16,4.23-1.16,2.11,0,4.16.27,5.86.55l.89-5.12c-2.18-.48-4.43-.68-6.27-.68-7.03,0-11.46,2.93-11.46,10.64v4.16l-5.66.48-.2,4.5h5.86v28.57Z"/>
    <path id="path56" class="st0" d="M779.25,31.49h.48l6.75,22.3h-14.12l6.89-22.3ZM770.86,58.63h17.05l2.52,8.32h7.16l-13.98-41.8-7.63.2-14.46,41.6h6.75l2.59-8.32Z"/>
    <path id="path60" class="st0" d="M808.92,41.79c2.86-2.32,5.18-3,7.91-3,1.16,0,2.32.14,3.61.41l.48-5.8c-1.23-.48-2.39-.68-3.55-.68-2.79,0-5.52,1.43-8.25,4.57l-.41-.14-.14-4.37-6,.75v33.41h6.34v-25.16Z"/>
    <path id="path64" class="st0" d="M828.97,60.61c0,4.7,1.98,6.75,7.78,6.75,1.84,0,3.96-.34,6-.95l.07-5.05c-1.98.34-3.48.41-4.64.41-.89,0-1.84-.07-2.86-.21v-23.18h7.64l.41-4.98-8.05-.07v-8.86l-5.18.68-.82,8.11-5.12.27-.27,4.77h5.05v22.3Z"/>
    <path id="path68" class="st0" d="M858.98,62.72c-2.59,0-5.93-.75-9.69-2.59l-1.16,5.05c3.14,1.57,6.34,2.45,10.16,2.45,8.73,0,13.09-4.64,13.09-9.96,0-10.16-16.71-11.46-16.71-16.98,0-1.02.48-1.84,1.37-2.52,1.09-.54,3-.95,4.98-.95,2.18,0,5.18.47,8.45,1.97l1.09-5.05c-3.14-1.16-6.07-1.7-9-1.7-7.36,0-12.82,3.48-12.82,9.07,0,9.82,16.43,10.43,16.43,17.12,0,1.16-.48,2.18-1.23,2.93-1.29.82-3.07,1.16-4.98,1.16"/>
    <path id="path72" class="st0" d="M899.08,47.03l-6,.34c-.41,3.96-.61,7.78-.61,10.78v8.8h6.61v-19.91Z"/>
    <path id="path76" class="st0" d="M914.42,36.94c.27,1.91.27,4.03.27,6.14v23.87h6.68v-24.68c0-9.68-2.52-11.18-16.23-11.18-4.5,0-9.48.21-13.71.61l.41,5.39c4.43-.34,9.69-.55,13.71-.55,3.41,0,6.41.07,8.87.41"/>
    <path id="path80" class="st0" d="M932.29,36.81v15.55h6.61v-15.27c0-4.98-1.5-5.8-6.68-5.8-1.64,0-3.68,0-5.39.07l.55,5.46h4.91Z"/>
    <path id="path84" class="st0" d="M953.09,66.95l2.32-27.82c4.29-1.91,8.45-2.32,11.59-2.32,1.63,0,2.86.07,3.95.27.34,2.66.34,5.32.34,8.11v16.03h-10.16v5.73h16.71v-22.85c0-10.63-1.84-13.02-9.75-13.02-4.91,0-9.21,1.02-14.12,3.68l-1.3-3.89-6.07.41,2.59,7.91-2.87,27.75h6.75Z"/>
    <path id="path88" class="st0" d="M1001.03,36.81c-.55,4.02-.82,8.04-.82,14.39v15.82h6.75v-30.01l4.84-.48v-5.11h-28.3l.41,5.39h17.12Z"/>
    <path id="path92" class="st0" d="M1042.98,37.28l-11.05,29.66h6.75l10.64-30.35-.68-5.25h-30.48l.41,5.46h24.21l.2.48Z"/>
    <path id="path96" class="st0" d="M1025.45,45.67l-5.93.14c-.48,4.09-.68,8.93-.68,12.07v22.23h6.62v-34.44Z"/>
    <path id="path100" class="st0" d="M1084.51,41.17l.89-9.82h-6.62l-.48,8.39c-.14,3.75-1.16,7.57-2.46,9.82l-.48.21c-4.91-6-10.09-12.62-15.48-18.75l-7.36.54c2.66,2.87,5.39,6,8.05,9.07v.34c-2.59,3.34-4.23,7.7-4.77,13.16l-1.16,12.82h6.68l.68-10.78c.2-3.82.95-7.57,2.11-10.7l.34-.07c5.05,6.27,10.91,13.85,16.43,21.55h6.96v-.75c-2.87-4.23-5.73-8.11-8.66-12,2.87-3.07,4.85-7.77,5.32-13.03"/>
    <path id="path104" class="st0" d="M129.34,153.56c-1.98-.07-4.16.21-5.86.89.14,1.84.61,3.68,1.23,5.8l5.18-.75-.55-5.93Z"/>
    <path id="path108" class="st0" d="M118.77,153.56c-1.98-.07-4.16.21-5.86.89.14,1.84.61,3.68,1.23,5.8l5.18-.75-.55-5.93Z"/>
    <path id="path112" class="st0" d="M244.11,118.37l-.55-5.93c-1.98-.07-4.16.21-5.86.89.14,1.85.61,3.68,1.23,5.8l5.18-.75Z"/>
    <path id="path116" class="st0" d="M254.41,118.37l-.55-5.93c-1.98-.07-4.16.21-5.87.89.14,1.85.61,3.68,1.23,5.8l5.18-.75Z"/>
    <path id="path120" class="st0" d="M205.58,142.99c-2.66,0-6.14-.14-9.89-1.02l-.14-.48c7.43-9.75,12.82-14.46,17.05-14.46,6.13,0,10.02,6.48,9.95,12.14-4.5,2.66-11.73,3.82-16.98,3.82M155.46,142.72c-3.34,0-7.09-.95-9.75-3.41,2.66-8.19,5.12-11.8,8.93-11.8s6.07,3.34,8.8,11.93c-2.11,2.25-5.12,3.27-7.98,3.27M91.83,143.26c-3.68,0-7.84-.82-10.98-1.57,1.91-7.98,4.57-13.5,9.21-13.5s6,4.64,9.07,13.37c-2.39,1.37-4.84,1.7-7.29,1.7M268.19,145.31c2.12-1.64,3.48-3.95,3.55-8.25l.48-38.87-6.68.68.34,41.26c-2.32,1.57-4.23,2.05-7.16,2.05h0c-3.75,0-7.3-.75-9.89-2.18l.48-15.89-6.07.41-.61,15.55c-2.66,1.43-5.39,2.12-9.68,2.12-.01,0-.02,0-.04,0-.01,0-.02,0-.04,0-1.63,0-3.47-.21-5.66-.62.55-.95.82-2.18.82-3.61,0-7.16-5.25-17.25-14.18-17.25-6.82,0-14.53,7.23-23.19,19.71l-3.61-1.84,1.77-9.96-5.73.2-1.23,7.91c-.75,4.43-3.07,5.32-7.84,5.46,0,0-.02,0-.03,0-.01,0-.03,0-.04,0-3.21,0-4.57-2.12-5.66-5.12-3-8.66-5.25-15.89-12.75-15.89s-10.64,6.61-14.66,17.52c-1.5,2.66-3.48,3.48-5.8,3.48-3.75,0-7.29-.75-9.89-2.18l.48-15.89-6.07.41-.61,15.55c-2.66,1.43-5.39,2.12-9.68,2.12h0c-3.75,0-5.12-2.18-5.8-4.09-2.39-7.02-5.12-16.23-12.82-16.23s-11.59,8.39-14.39,18.82c-.82-.21-1.43-.27-1.84-.27-1.77.2-3.41,2.32-3.41,4.16,0,1.97.07,4.02.13,6.82l.75,17.18h6.27l-1.84-21.89.34-.27c3.96,1.57,9.28,2.79,14.32,2.79s8.11-1.23,10.43-3.34h.41c1.57,1.71,3.82,2.59,7.43,2.59,0,0,0,0,0,0,0,0,0,0,0,0,4.57,0,9.14-1.09,12.75-3.89h.48c3.34,2.66,7.71,3.89,12.55,3.89,3.41-.07,5.59-.75,8.05-3.96h.55c2.86,2.73,6.55,4.64,11.39,4.64,3.41,0,6.89-1.09,10.23-4.91h.55c2.11,3.2,4.77,4.23,8.11,4.23.01,0,.02,0,.03,0s.02,0,.03,0c4.5,0,8.39-1.23,10.84-4.64h.55c5.66,3.82,12.75,5.12,19.16,5.12,6.89,0,13.5-1.37,17.8-3.41h.55c3.55,2.25,6.89,2.93,9.95,2.93.01,0,.02,0,.04,0,.01,0,.03,0,.04,0,4.57,0,9.14-1.09,12.75-3.89h.48c3.34,2.66,7.71,3.89,12.55,3.89,0,0,0,0,0,0h0c3.89,0,7.16-1.09,9.48-3.14"/>
    <path id="path124" class="st0" d="M285.1,148.45h5.86l.41-49.99-6.54.61.27,49.37Z"/>
    <path id="path128" class="st0" d="M314.29,142.24c-5.66,0-8.12-1.84-8.59-3.62.07-4.02,3.48-9.68,7.91-9.68s7.3,4.77,7.77,12.27c-1.91.62-4.43,1.03-7.09,1.03M309.31,156.97c-2.11,0-4.98-.27-7.57-1.23l-.75,5.46c2.25,1.09,5.45,1.91,8.66,1.91,10.78,0,17.05-8.93,17.05-21s-6.28-19.43-12.48-19.43c-6.61,0-13.23,8.45-13.23,15.55,0,6.55,5.18,9.55,11.73,9.55,2.39,0,5.66-.41,8.59-1.57-.75,7.02-4.44,10.77-12,10.77"/>
    <path id="path132" class="st0" d="M375.94,129.62l2.32,19.02c-3.14,4.43-7.84,6.07-13.3,6.07-8.25,0-12.41-3.82-12.41-11.8,0-2.93.55-5.93,1.5-9.27l-4.84-1.02c-1.77,4.64-2.39,8.66-2.39,11.93,0,10.84,7.02,16.57,17.32,16.57s19.1-5.73,19.1-15.82c0-2.72-.55-9.68-1.3-16.5l-6,.82Z"/>
    <path id="path136" class="st0" d="M367.34,125.05l-.54-5.93c-1.98-.07-4.16.21-5.86.89.13,1.85.61,3.68,1.23,5.8l5.18-.75Z"/>
    <path id="path140" class="st0" d="M432.27,119.12l5.18-.75-.54-5.93c-1.98-.07-4.16.21-5.86.89.13,1.85.61,3.68,1.23,5.8"/>
    <path id="path144" class="st0" d="M461.73,111.83l5.18-.75-.55-5.93c-1.98-.07-4.16.2-5.87.89.14,1.84.61,3.68,1.23,5.8"/>
    <path id="path148" class="st0" d="M463.03,139.17c-3.96-2.25-6.82-5.59-7.23-9.14.82-3.48,4.37-6.61,7.84-6.61s7.09,2.05,8.25,8.73c-1.77,3-4.5,5.25-8.39,7.03h-.48ZM405.95,142.58c-5.66,0-9.61-.96-10.16-4.37.34-3.68,2.94-8.8,7.23-8.8,4.71,0,7.71,6,8.05,13.16h-5.12ZM514.32,145.31c2.11-1.64,3.47-3.95,3.55-8.25l.48-38.87-6.68.68.34,41.26c-2.32,1.57-4.23,2.05-7.16,2.05h0c-3.41,0-6.61-.82-9.07-2.32l.41-41.6-6.68.68.27,40.98c-2.46,1.57-4.98,2.25-8.93,2.25h-5.25c-2.05,0-4.09-.21-6.07-.62l-.27-.27c4.43-3.2,7.23-6.89,7.23-10.64,0-6.07-4.91-13.57-12.07-13.57-6.75,0-13.23,7.37-13.23,13.78,0,3.48,1.91,7.23,5.39,10.23l-.27.27c-2.8.48-5.86.82-9.34.82-3.75,0-7.3-.75-9.89-2.18l.48-15.89-6.07.41-.61,15.55c-2.66,1.43-5.39,2.12-9.68,2.12-.01,0-.02,0-.04,0-.01,0-.02,0-.03,0h-4.77c-.54-13.1-6.68-19.03-12.27-19.03-6.75,0-12.96,7.77-12.96,15.34,0,6.62,5.11,9.75,13.91,9.75h5.73c-1.02,5.8-5.05,8.66-11.8,8.66-2.12,0-5.05-.41-7.57-1.23l-.68,5.45c2.11,1.09,5.32,1.91,8.52,1.91,9.14,0,15-6.07,16.64-14.59h5.25s.02,0,.03,0c.01,0,.02,0,.04,0,4.57,0,9.14-1.09,12.75-3.89h.48c3.34,2.66,7.71,3.89,12.55,3.89,5.39,0,10.71-1.23,15.27-3.07h.55c5.12,2.46,10.77,3,18.07,3.07h0c4.23,0,8.46-1.03,11.93-4.03h.48c3.2,2.73,7.43,4.03,11.59,4.03h0c3.89,0,7.16-1.09,9.48-3.14"/>
    <path id="path152" class="st0" d="M562.73,105.75l5.18-.75-.55-5.93c-1.98-.07-4.16.21-5.86.89.14,1.84.61,3.68,1.23,5.8"/>
    <path id="path156" class="st0" d="M552.44,105.75l5.18-.75-.55-5.93c-1.98-.07-4.16.21-5.86.89.13,1.84.61,3.68,1.23,5.8"/>
    <path id="path160" class="st0" d="M579.85,153.56c-1.98-.07-4.16.21-5.87.89.14,1.84.61,3.68,1.23,5.8l5.18-.75-.54-5.93Z"/>
    <path id="path164" class="st0" d="M590.42,153.56c-1.97-.07-4.16.21-5.86.89.14,1.84.61,3.68,1.23,5.8l5.18-.75-.55-5.93Z"/>
    <path id="path168" class="st0" d="M615.72,127.51c3.82,0,6.07,3.34,8.8,11.93-2.11,2.25-5.11,3.27-7.98,3.27-3.34,0-7.09-.95-9.75-3.41,2.66-8.19,5.12-11.8,8.93-11.8M552.44,135.28c-3.55,0-6.34-.61-7.3-3,.82-5.25,4.71-9.21,12.82-11.39l.61,13.71c-2.05.55-4.3.68-6.14.68M626.36,144.22h.55c2.11,3.2,4.77,4.23,8.12,4.23.01,0,.02,0,.03,0s.02,0,.03,0c5.53,0,10.23-1.3,12.89-3.48,2.18-1.64,3.27-4.02,3.27-8.18,0-2.46-.34-10.17-.89-15.14l-6.21.62,1.64,17.73c-3.14,1.63-6.55,2.18-10.71,2.18-.01,0-.02,0-.03,0s-.02,0-.03,0c-3.21,0-4.57-2.12-5.66-5.12-3-8.66-5.25-15.89-12.75-15.89s-10.64,6.61-14.66,17.52c-1.5,2.66-3.48,3.48-5.8,3.48h0c-3.75,0-7.3-.75-9.89-2.18l.48-15.89-6.07.41-.61,15.55c-2.66,1.43-5.39,2.12-9.69,2.12-5.12,0-6.27-1.37-6.48-6.55l-.75-24.82-5.8.75.2,3.82c-13.77,4.43-17.05,12.28-17.05,17.39,0,4.57,3.75,8.25,11.53,8.25,1.84,0,4.43-.14,6.95-.89l.48.2c.96,5.8,4.09,8.12,10.91,8.12,4.57,0,9.14-1.09,12.75-3.89h.48c3.34,2.66,7.71,3.89,12.55,3.89,0,0,0,0,0,0s0,0,0,0c3.41-.07,5.59-.75,8.05-3.96h.54c2.86,2.73,6.55,4.64,11.39,4.64,3.41,0,6.89-1.09,10.23-4.91"/>
    <path id="path172" class="st0" d="M646.75,154.44c.14,1.84.61,3.68,1.23,5.8l5.18-.75-.55-5.93c-1.98-.07-4.16.21-5.86.89"/>
    <path id="path176" class="st0" d="M637.41,160.24l5.18-.75-.55-5.93c-1.98-.07-4.16.21-5.87.89.14,1.84.61,3.68,1.23,5.8"/>
    <path id="path180" class="st0" d="M669.67,149.13c9.41,0,16.57-4.71,16.57-11.59s-4.57-17.53-14.32-24.75l-4.16,5.11c7.71,6.01,12.75,13.71,13.3,21.01-2.93,3.27-7.3,3.88-10.91,3.88s-6.61-.75-6.61-2.87c0-.41.07-1.02.14-1.7l-4.77-.48c-.34,1.29-.61,2.8-.61,4.03,0,5.86,6.14,7.36,11.39,7.36"/>
    <path id="path184" class="st0" d="M729.88,145.03c2.39-1.43,3.82-3.27,3.82-6.27,0-4.98-4.5-14.93-14.53-23.05v-.54l16.23-10.91-.55-6.48-22.77,16.64v4.36l3.48,1.77c7.63,6.75,11.52,12.89,13.16,18.89-4.77,2.52-10.43,2.73-19.5,2.73-.01,0-.02,0-.03,0s-.02,0-.04,0c-4.77,0-6.68-.89-6.68-4.98v-38.74l-6.55.68.61,38.67c.07,8.05,3.55,10.64,12.62,10.64.01,0,.02,0,.04,0s.02,0,.03,0c10.23,0,16.43-.75,20.66-3.41"/>
    <path id="path188" class="st0" d="M749.53,148.45l.27-41.81-6.75.75.75,41.05h5.73Z"/>
    <path id="path192" class="st0" d="M746.94,92.39c1.16,0,2.46.21,3.61.75l.55-3.96c-1.3-.68-2.59-.95-3.82-.95-4.03,0-6.48,3.14-6.48,6.27,0,1.77.89,3.34,2.52,4.7l-3.89.55v3.27l14.46-1.5v-3.82l-3.96.54c-3.2-1.09-5.66-2.59-6.07-4.29.68-.89,1.7-1.57,3.07-1.57"/>
    <path id="path196" class="st0" d="M779.06,138.08c0-1.64.27-3.14,1.09-4.37,2.59-1.43,5.59-1.5,8.53-1.5,1.77,0,3.14.07,4.7.2v7.37c-2.52,2.73-5.66,3.88-8.39,3.88-3.89,0-5.93-2.25-5.93-5.59M793.45,144.49l.41.14.48,3.82h5.46v-22.3c0-8.39-4.5-12.2-12.75-12.2-3.95,0-8.05.75-11.73,1.91l-.41,5.25c3.68-1.09,7.84-1.77,11.12-1.77,6.21,0,7.43,2.66,7.43,7.98v.68c-1.3-.14-2.53-.14-4.03-.14-3.75,0-8.18.27-11.05,1.85-3.41,1.63-5.52,5.05-5.52,9.41s2.94,9.82,10.23,9.82c3.95,0,7.43-1.57,10.37-4.43"/>
    <path id="path200" class="st0" d="M831.43,148.45h6.34v-24.01c0-7.37-3.34-10.37-9.61-10.37-4.91,0-8.87,1.91-12,3.89l-.48-.14-.21-3.55-5.93.75v33.42h6.34v-26.05c3.68-2.11,6.82-2.8,9.41-2.8,4.09,0,6.14,1.71,6.14,6.07v22.78Z"/>
    <path id="path204" class="st0" d="M855.58,120.69c2.19-1.09,4.16-1.5,6.62-1.5,1.91,0,3.82.27,5.66.82v19.98c-3.14,3.34-6.14,3.68-7.57,3.68-5.59,0-8.39-4.43-8.39-12,0-4.84,1.23-8.8,3.68-10.98M858.24,148.99c3.14,0,6.75-1.09,9.68-4.16l.48.2.48,3.41h5.32v-48.01l-6.34.82v13.44c-1.7-.48-3.27-.68-5.05-.68-9.21,0-17.46,6.07-17.46,18.75,0,10.5,5.52,16.23,12.89,16.23"/>
    <path id="path208" class="st0" d="M905.36,111.96c1.98-.27,3.82-.27,5.87-.27,8.59,0,13.91,3.68,13.91,15.01,0,8.05-2.39,12.82-7.43,15.82-2.25.61-4.23.75-6.21.75s-4.02-.07-6.14-.27v-31.03ZM932.09,126.01c0-16.1-10.71-19.78-20.05-19.78-2.87,0-7.02,0-13.3.75v41.39c5.25.34,8.32.48,12.07.48,13.5,0,21.27-7.71,21.27-22.85"/>
    <path id="path212" class="st0" d="M947.44,120.89c1.77-1.5,4.16-1.98,6.07-1.98,4.84,0,7.23,3.13,7.43,9.61h-16.43c.41-3.68,1.63-6,2.93-7.64M965.31,142.51c-3.61,1.09-7.16,1.5-9.95,1.5-6.62,0-10.57-3.2-10.91-11.25h22.3c.41-1.91.41-3.41.41-5.18,0-8.93-5.25-13.64-13.37-13.64-10.3,0-15.75,7.7-15.75,18,0,10.98,6.28,17.25,16.44,17.25,2.86,0,6.89-.48,10.5-1.84l.34-4.84Z"/>
    <path id="path216" class="st0" d="M995.93,139.17c0-10.16-16.71-11.46-16.71-16.98,0-1.02.48-1.84,1.36-2.52,1.09-.55,3-.96,4.98-.96,2.18,0,5.18.48,8.45,1.98l1.09-5.05c-3.14-1.16-6.07-1.7-9-1.7-7.36,0-12.82,3.47-12.82,9.07,0,9.82,16.43,10.44,16.43,17.12,0,1.16-.48,2.18-1.23,2.93-1.29.82-3.07,1.16-4.98,1.16-2.59,0-5.93-.75-9.68-2.59l-1.16,5.05c3.14,1.57,6.34,2.46,10.16,2.46,8.73,0,13.09-4.64,13.09-9.96"/>
    <path id="path220" class="st0" d="M1004.52,102.82c.07,2.39.27,4.36.68,6.75l6.21-.13.41-6.82c-2.59-.21-5.39-.07-7.3.2"/>
    <path id="path224" class="st0" d="M1012.02,148.45v-33.55h-11.19l-.27,4.77,5.18.27v28.51h6.28Z"/>
    <path id="path228" class="st0" d="M1025.11,151.99c0-2.25,1.16-4.16,3.14-6.21l3.61.62c6.75.89,12.41,1.23,12.41,5.45,0,3.55-4.43,6.14-9.96,6.14-5.05,0-9.21-1.84-9.21-6M1028.86,119.74c1.98-.96,3.48-1.16,4.84-1.16,4.98,0,7.09,2.86,7.09,7.09,0,2.66-.96,4.5-2.39,5.8-1.5.75-3.07.95-4.37.95-5.18,0-7.63-2.87-7.63-6.82,0-2.39.95-4.3,2.45-5.86M1049.8,150.56c0-7.09-6.95-8.25-16.37-9.61-1.5-.21-2.66-.34-5.05-.82l.89-3.75c1.09.27,2.39.34,3.62.34,7.64,0,14.25-3.89,14.25-11.18,0-2.93-1.09-5.12-3.34-6.75v-.48l7.23.28.34-4.57-12.41.48c-1.57-.27-3.07-.48-4.77-.48-7.91,0-14.12,4.7-14.12,12.07,0,3.96,1.84,6.75,4.77,8.52v.55c-1.37,1.91-1.91,3.41-1.91,5.05,0,1.5.48,2.66,1.43,3.68v.54c-3.07,2.52-4.98,5.32-4.98,8.87,0,7.3,6.82,9.61,13.5,9.61,10.3,0,16.91-5.46,16.91-12.34"/>
    <path id="path232" class="st0" d="M1085.06,148.45v-24.01c0-7.37-3.34-10.37-9.61-10.37-4.91,0-8.87,1.91-12,3.89l-.48-.14-.2-3.55-5.93.75v33.42h6.34v-26.05c3.68-2.11,6.82-2.8,9.41-2.8,4.09,0,6.14,1.71,6.14,6.07v22.78h6.34Z"/>
    <path id="path236" class="st0" d="M65.23,207.88l1.98,17.73c-4.64.21-9.07-.82-13.57-2.86l1.29-12.35-5.73.21-1.16,13.09c-2.18,1.37-4.63,1.71-6.75,1.71-1.84,0-3.61-.27-5.32-.89-.21-3.41-.61-8.18-1.16-12.89l-6,.82,2.32,19.03c-3.14,4.43-7.84,6.07-13.3,6.07-8.25,0-12.41-3.82-12.41-11.8,0-2.93.54-5.93,1.5-9.27l-4.84-1.02c-1.77,4.64-2.39,8.66-2.39,11.93,0,10.84,7.02,16.57,17.32,16.57,9.41,0,17.59-4.77,18.89-13.3,1.57.54,3.34.89,5.05.89,3.68,0,7.5-1.16,10.84-3.82h.54c3.96,2.32,7.78,3.82,12.55,3.82,2.79,0,4.64-.68,5.46-1.43,1.36-1.03,2.11-3.07,2.11-5.73s-.61-10.84-1.3-17.05l-5.93.54Z"/>
    <path id="path240" class="st0" d="M124.22,194.66l5.18-.75-.55-5.93c-1.98-.07-4.16.21-5.87.89.14,1.84.61,3.68,1.23,5.8"/>
    <path id="path244" class="st0" d="M139.15,187.97c-1.98-.07-4.16.21-5.87.89.14,1.84.61,3.68,1.23,5.8l5.18-.75-.54-5.93Z"/>
    <path id="path248" class="st0" d="M130.63,222c-3.95-2.25-6.82-5.59-7.23-9.14.82-3.47,4.37-6.61,7.84-6.61s7.09,2.05,8.25,8.73c-1.77,3-4.5,5.25-8.39,7.02h-.48ZM155.59,222.96c-2.32,1.57-4.23,2.05-7.16,2.05h-5.25c-2.05,0-4.09-.2-6.07-.61l-.27-.28c4.43-3.2,7.23-6.88,7.23-10.63,0-6.07-4.91-13.57-12.07-13.57-6.75,0-13.23,7.37-13.23,13.77,0,3.48,1.91,7.23,5.39,10.23l-.28.27c-2.79.48-5.86.82-9.34.82-.01,0-.02,0-.04,0-.01,0-.02,0-.03,0-2.93,0-5.66-.96-7.57-6.69l-6.82-20.18-5.86.89,8.59,23.45-.27.34c-4.03,2.18-7.84,3-11.94,3-4.57,0-5.86-1.02-5.86-3.27,0-.55,0-.82.14-1.5l-4.77-.48c-.41,1.36-.61,2.79-.61,4.09,0,5.25,3.41,7.43,10.23,7.43s11.45-2.11,15-5.12h.55c2.25,3.07,5.25,4.3,9.2,4.3.01,0,.02,0,.03,0,.01,0,.02,0,.04,0,5.39,0,10.71-1.23,15.28-3.07h.54c5.12,2.46,10.77,3,18.07,3.07h0c3.88,0,7.16-1.09,9.48-3.14,2.12-1.64,3.48-3.95,3.55-8.25l.48-38.87-6.68.68.34,41.26Z"/>
    <path id="path252" class="st0" d="M174.82,231.28h5.86l.41-49.99-6.55.62.27,49.37Z"/>
    <path id="path256" class="st0" d="M231.22,225.75h-17.53v-24.62c3.48-.27,6.27-.34,8.39-.34,4.16,0,6.82.14,8.87.41.13,1.7.27,3.55.27,6.27v18.28ZM220.85,195.4c-4.64,0-9.96.34-14.39.75l.48,5.39v29.73h30.96v-23.25c0-11.32-2.46-12.62-17.05-12.62"/>
    <path id="path260" class="st0" d="M248.75,195.61c-1.64,0-3.68,0-5.39.07l.55,5.45h4.91v15.55h6.61v-15.27c0-4.98-1.5-5.8-6.68-5.8"/>
    <path id="path264" class="st0" d="M266.75,195.68l-.68-10.91-6,.68.48,10.23.82,5.45h18.89l.14.48-13.43,29.67h7.16l12.96-30.62-.61-4.98h-19.71Z"/>
    <path id="path268" class="st0" d="M322.47,212.66c-1.09,10.78-6,13.37-14.59,13.37-2.39,0-4.57-.07-6.69-.34l-.75-6.96c6.48-.82,11.46-3.27,12.55-10.36l2.18-12.62h-6.28l-1.43,10.37c-.75,5.32-3,7.3-6.96,7.98h-.55l-1.91-18.41h-6.41l3.21,28.43c.2,2.05.48,4.03.89,6.48,3.89.89,8.73,1.09,12.55,1.09,10.44,0,18.55-3.75,20.19-16.91l2.32-19.03h-6.68l-1.64,16.91Z"/>
    <path id="path272" class="st0" d="M341.02,195.61c-1.7,0-3.55,0-5.25.07l.34,5.45h4.91v30.14h6.68v-29.8c0-4.91-1.5-5.86-6.68-5.86"/>
    <path id="path276" class="st0" d="M364.27,195.4c-3.89,0-7.43.21-10.64.48l.41,5.53c3.27-.34,7.03-.55,10.3-.55s6.07.07,7.91.34c.21,1.91.21,3.55.21,5.73v24.34h6.68v-23.87c0-10.64-1.23-12-14.87-12"/>
    <path id="path280" class="st0" d="M390.8,195.61c-1.64,0-3.68,0-5.39.07l.55,5.45h4.91v15.55h6.61v-15.27c0-4.98-1.5-5.8-6.68-5.8"/>
    <path id="path284" class="st0" d="M430.36,217.43c0,2.66-.07,5.53-.61,8.19-1.3.48-2.59.68-4.5.68-2.66,0-5.25-.41-7.63-1.09l-.41,5.05c2.18,1.09,4.5,1.71,7.57,1.71,3.61,0,6.82-.61,8.86-2.8,2.46-2.53,3.35-7.3,3.35-13.3v-26.19h-6.62v27.75Z"/>
    <path id="path288" class="st0" d="M451.36,211.36c.41-3.68,1.63-6,2.93-7.64,1.77-1.5,4.16-1.98,6.07-1.98,4.84,0,7.23,3.14,7.43,9.61h-16.43ZM460.64,196.77c-10.3,0-15.75,7.7-15.75,18,0,10.98,6.28,17.25,16.44,17.25,2.86,0,6.89-.48,10.5-1.84l.34-4.84c-3.62,1.09-7.16,1.5-9.96,1.5-6.62,0-10.57-3.21-10.91-11.25h22.3c.41-1.91.41-3.41.41-5.19,0-8.93-5.25-13.64-13.37-13.64"/>
    <path id="path292" class="st0" d="M488.26,201.61l-.41-.13-.14-4.37-6,.75v33.42h6.34v-25.16c2.86-2.32,5.18-3,7.91-3,1.16,0,2.32.13,3.61.41l.48-5.8c-1.23-.48-2.39-.68-3.55-.68-2.79,0-5.52,1.43-8.25,4.57"/>
    <path id="path296" class="st0" d="M526.79,222.89c-3.55,3.14-6.27,3.82-8.8,3.82-4.16,0-6.21-1.64-6.21-6.14v-22.85h-6.34v23.93c0,7.37,3.41,10.44,9.68,10.44,4.57,0,8.19-1.71,11.59-4.64l.48.14.27,3.68h5.66v-33.55h-6.34v25.16Z"/>
    <path id="path300" class="st0" d="M547.59,205.02c0-1.02.48-1.84,1.36-2.52,1.09-.54,3-.95,4.98-.95,2.18,0,5.18.48,8.45,1.98l1.09-5.05c-3.14-1.16-6.07-1.7-9-1.7-7.36,0-12.82,3.48-12.82,9.07,0,9.82,16.43,10.44,16.43,17.12,0,1.16-.48,2.18-1.23,2.93-1.29.82-3.07,1.16-4.98,1.16-2.59,0-5.93-.75-9.69-2.59l-1.16,5.05c3.14,1.57,6.34,2.46,10.16,2.46,8.73,0,13.09-4.64,13.09-9.96,0-10.16-16.71-11.46-16.71-16.98"/>
    <path id="path304" class="st0" d="M590.35,222.62c-2.52,2.72-5.66,3.89-8.39,3.89-3.89,0-5.93-2.25-5.93-5.59,0-1.64.27-3.14,1.09-4.37,2.59-1.43,5.59-1.5,8.53-1.5,1.77,0,3.14.07,4.7.2v7.37ZM584.01,196.77c-3.96,0-8.05.75-11.73,1.91l-.41,5.25c3.68-1.09,7.84-1.77,11.12-1.77,6.21,0,7.43,2.66,7.43,7.98v.68c-1.3-.13-2.53-.13-4.03-.13-3.75,0-8.18.27-11.05,1.84-3.41,1.63-5.53,5.05-5.53,9.41s2.94,9.82,10.23,9.82c3.96,0,7.43-1.57,10.37-4.43l.41.13.48,3.82h5.45v-22.3c0-8.39-4.5-12.21-12.75-12.21"/>
    <path id="path308" class="st0" d="M612.52,223.03v-39.76l-6.34.82v40.3c0,2.73.14,4.7,1.3,5.93,1.29,1.16,3.07,1.37,5.25,1.37,1.84,0,3.75-.21,5.32-.55l.34-4.77-5.8-.41c-.07-.96-.07-1.71-.07-2.93"/>
    <path id="path312" class="st0" d="M629.36,211.36c.41-3.68,1.63-6,2.93-7.64,1.77-1.5,4.16-1.98,6.07-1.98,4.84,0,7.23,3.14,7.43,9.61h-16.43ZM638.63,196.77c-10.3,0-15.75,7.7-15.75,18,0,10.98,6.28,17.25,16.44,17.25,2.86,0,6.89-.48,10.5-1.84l.34-4.84c-3.62,1.09-7.16,1.5-9.96,1.5-6.62,0-10.57-3.21-10.91-11.25h22.3c.41-1.91.41-3.41.41-5.19,0-8.93-5.25-13.64-13.37-13.64"/>
    <path id="path316" class="st0" d="M698.98,196.91c-4.91,0-9.34,1.98-12.61,3.95l-.48-.2c-1.5-2.73-4.23-3.75-8.18-3.75-4.36,0-8.25,1.77-11.39,3.89l-.48-.13-.21-3.55-5.93.75v33.42h6.34v-26.19c3.41-1.98,6.48-2.66,8.86-2.66,4.03,0,6,1.7,6,6.07v22.77h6.34v-23.93c0-.89,0-1.64-.14-2.32,3.55-1.91,6.55-2.59,9.07-2.59,4.02,0,5.93,1.7,5.93,6.07v22.77h6.34v-24c0-7.37-3.27-10.37-9.48-10.37"/>
    <path id="path320" class="st0" d="M754.5,206.38c0-9.54-2.59-10.98-13.78-10.98-3.68,0-7.7.14-11.25.48l.48,5.53c3.27-.28,7.57-.48,10.77-.48,2.73,0,4.91.14,6.75.41.27,1.5.34,3,.34,4.71v19.5h-18.55v5.73h30.55v-5.53l-5.32-.34v-19.03Z"/>
    <path id="path324" class="st0" d="M767.32,195.61c-1.7,0-3.55,0-5.25.07l.34,5.45h4.91v30.14h6.68v-29.8c0-4.91-1.5-5.86-6.68-5.86"/>
    <path id="path328" class="st0" d="M809.87,195.68h-6.48l-5.05,17.53-.41.07-11.93-17.87-6.89.68,11.32,16.09c3.55,4.98,6.95,9.14,9.96,12.89l-.14.48-18.69-.14v5.86h26.39l.82-5.32-6.89-8.39v-.55c3.14-5.66,5.25-12.07,7.98-21.34"/>
    <path id="path332" class="st0" d="M818.81,195.61c-1.64,0-3.68,0-5.39.07l.55,5.45h4.91v15.55h6.61v-15.27c0-4.98-1.5-5.8-6.68-5.8"/>
    <path id="path336" class="st0" d="M853.73,211.84c-.27,6.21-2.79,9.55-7.43,11.66l-8.32-28.17-6.61.48,9.41,29.6-9.14,3v6.14l13.03-4.3c8.39-2.73,14.45-7.3,15.27-17.18l1.43-17.39h-6.89l-.75,16.16Z"/>
    <path id="path340" class="st0" d="M872.01,195.61c-1.7,0-3.55,0-5.25.07l.34,5.45h4.91v30.14h6.68v-29.8c0-4.91-1.5-5.86-6.68-5.86"/>
    <path id="path344" class="st0" d="M918.72,195.4c-6,0-12.62.27-18.41.68l.55,5.52,6.07-.41-.07,20.26c0,2.93-.75,4.29-4.09,4.29-.89,0-1.64-.07-3-.13v5.39c1.23.34,3,.48,4.5.48,7.3,0,9.21-3.21,9.21-8.8v-21.75c2.18-.07,4.16-.14,5.8-.14,3.55,0,6.68.14,9.21.62.27,2.39.27,4.64.27,6.82v23.05h6.68v-23.46c0-10.84-2.04-12.41-16.71-12.41"/>
    <path id="path348" class="st0" d="M947.37,195.61c-1.7,0-3.55,0-5.25.07l.34,5.45h4.91v30.14h6.68v-29.8c0-4.91-1.5-5.86-6.68-5.86"/>
    <path id="path352" class="st0" d="M968.78,195.54c-2.53,0-3.68.07-5.46.14l.34,5.45h7.02v24.41h-9v5.73h15.62v-23.93c0-8.87.2-11.8-8.53-11.8"/>
    <path id="path356" class="st0" d="M1007.04,195.4c-4.91,0-9.21,1.03-14.12,3.68l-1.29-3.88-6.07.41,2.59,7.91-2.86,27.75h6.75l2.32-27.82c4.29-1.91,8.45-2.32,11.59-2.32,1.63,0,2.86.07,3.95.27.34,2.66.34,5.32.34,8.11v16.03h-10.16v5.73h16.71v-22.84c0-10.64-1.84-13.03-9.75-13.03"/>
    <path id="path360" class="st0" d="M1053.89,205.5l.89-9.82h-6.62l-.48,8.39c-.14,3.75-1.16,7.57-2.45,9.82l-.48.2c-4.91-6-10.09-12.61-15.48-18.75l-7.36.54c2.66,2.87,5.39,6.01,8.05,9.07v.34c-2.59,3.34-4.23,7.71-4.77,13.16l-1.16,12.82h6.68l.68-10.78c.21-3.82.95-7.57,2.11-10.7l.34-.07c5.05,6.27,10.91,13.84,16.43,21.55h6.96v-.75c-2.87-4.23-5.73-8.12-8.66-12,2.86-3.07,4.84-7.78,5.32-13.03"/>
    <path id="path364" class="st0" d="M1066.78,195.68l-.68-10.91-6,.68.48,10.23.82,5.45h18.89l.13.48-13.43,29.67h7.16l12.96-30.62-.61-4.98h-19.71Z"/>
    <path id="path368" class="st0" d="M1517.38,39.3h15.82l.13.48-11.73,26.53h12.07l11.52-28.23-.68-7.91h-17.59l-.55-11.25-10.37.89.34,10.37,1.02,9.14Z"/>
    <path id="path372" class="st0" d="M1558.37,40.6c-3.14,3.14-5.18,8.46-5.59,14.66l-.69,11.04h11.05l.2-8.52c.07-3.62.34-6.55.95-9.82h.48c4.16,5.86,8.04,12.07,11.73,18.34h11.87v-.82c-2.66-4.64-5.32-8.8-7.98-12.89,3.68-3.61,5.39-9.68,5.66-15.68l.34-6.75h-10.84l-.21,6.07c-.07,3.27-.21,6.55-.89,9.21h-.34c-3.75-5.39-7.36-10.37-11.25-15.62l-12.61.89c2.93,3.48,5.59,6.48,8.11,9.69v.2Z"/>
    <path id="path376" class="st0" d="M1594.24,39.3h15.82l.14.48-11.73,26.53h12.07l11.52-28.23-.68-7.91h-17.59l-.54-11.25-10.36.89.34,10.37,1.02,9.14Z"/>
    <path id="path380" class="st0" d="M1644.37,56.21l-.14.48h-15.07v9.61h29.12l1.43-7.98-6.34-6.75v-.55c3.68-4.64,5.32-10.02,7.43-20.87h-10.5l-2.66,14.73-.41.07-9.07-15.21-11.87.96,9.14,13.37c3.95,5.73,6.27,8.59,8.93,12.14"/>
    <path id="path384" class="st0" d="M1678.67,39.37c1.77,0,3.41.07,4.84.27.13.96.2,2.05.2,3.62v13.3h-15.62v9.75h31.51v-9.21l-4.5-.41v-12.89c0-12.2-3.75-14.05-15.34-14.05-3.95,0-8.05.14-11.73.62l.82,9.48c3-.2,6.62-.48,9.82-.48"/>
    <path id="path388" class="st0" d="M1525.56,160.18l-.82-7.98c-2.59-.27-5.59.21-7.98.96.14,2.93.75,5.32,1.64,7.91l7.16-.89Z"/>
    <path id="path392" class="st0" d="M1536.4,152.2c-2.59-.27-5.59.21-7.98.96.14,2.93.75,5.32,1.64,7.91l7.16-.89-.82-7.98Z"/>
    <path id="path396" class="st0" d="M1562.59,111.63l-3.2.61c-3.14-.89-6.48-2.32-7.09-3.68.89-.48,1.98-.75,3.27-.75,1.02,0,2.25.28,3.27.68l.89-6.34c-1.57-.62-2.79-.82-4.09-.82-4.77,0-7.98,3.88-7.98,8.25,0,1.5.89,2.94,2.39,4.37l-3.82.75v4.7l16.37-2.72v-5.05Z"/>
    <path id="path400" class="st0" d="M1676.48,117.5l-.82-7.98c-2.59-.27-5.59.2-7.98.96.14,2.93.75,5.32,1.64,7.91l7.16-.89Z"/>
    <path id="path404" class="st0" d="M1658.55,118.38l7.16-.89-.82-7.98c-2.59-.27-5.59.2-7.98.96.14,2.93.75,5.32,1.64,7.91"/>
    <path id="path408" class="st0" d="M1685.42,153.16c.14,2.93.75,5.32,1.64,7.91l7.16-.89-.82-7.98c-2.59-.27-5.59.21-7.98.96"/>
    <path id="path412" class="st0" d="M1697.49,134.2c0-2.8-.27-8.94-.68-14.25l-10.23,1.02,1.84,16.71c-2.73.96-5.11,1.3-8.79,1.3-2.93,0-5.93-.34-8.18-1.3l.48-15-9.89.55-.48,14.52c-1.98.75-4.23,1.23-7.98,1.23t0,0s0,0,0,0c-5.94,0-6.48-1.64-6.82-4.7l-1.02-11.59-9.89.89,1.43,11.32c.13,1.29.34,2.66.54,4.02-1.36.28-2.86.41-4.3.41-2.11,0-4.64-.41-7.23-1.16l1.77-11.66-9.55-.41-1.36,11.94c-1.57.95-2.86,1.16-4.71,1.16-2.32,0-4.02-.34-6-1.16l.61-4.09,1.02-7.43-9.28.21-.89,8.52c-.27,2.93-2.32,3.75-6.27,3.75-.01,0-.02,0-.03,0s-.02,0-.03,0c-2.66,0-5.52-.41-7.5-1.36l.68-38.32-11.25.95.68,37.44c-1.7.75-3.75,1.3-6.95,1.3h0c-2.93,0-5.93-.34-8.18-1.3l.48-15-9.89.55-.48,14.52c-1.98.75-4.23,1.23-7.98,1.23,0,0,0,0,0,0h0c-2.93,0-5.93-.34-8.18-1.3l.48-15-9.89.55-.48,14.52c-1.98.75-4.23,1.23-7.98,1.23h0c-2.46,0-5.39-.2-7.77-1.3l.34-38.39-11.25.95,1.16,46.85c-3.21,1.77-6.55,2.66-10.37,2.66-6.55,0-9.07-2.79-9.07-8.11,0-2.39.41-5.32,1.57-8.87l-8.46-1.43c-2.11,5.39-2.8,9.48-2.8,12.82,0,10.23,6.48,16.77,17.73,16.77,10.23,0,19.09-5.32,20.8-14.66v.07l.41-.13c2.25,2.04,5.32,2.93,7.71,2.93h0c4.43,0,8.87-.89,12.68-3.82h.55c3.95,3.27,7.98,3.82,12.82,3.82h0c4.43,0,8.87-.89,12.68-3.82h.55c3.95,3.27,7.98,3.82,12.82,3.82h0c4.16,0,8.18-.75,12.07-3.82h.48c3.68,3.2,8.18,3.82,11.8,3.82.01,0,.02,0,.03,0,.01,0,.02,0,.03,0,4.3,0,8.53-.96,11.19-3.34h.54c3.55,3.13,7.43,3.61,9.62,3.61,3.68,0,7.02-1.37,9.48-3.14h.48c2.59,2.11,5.46,3.34,9.82,3.34,3.75,0,6.82-.75,9.89-2.87h.48c2.52,1.5,5.93,2.39,10.43,2.39t0,0s0,0,0,0c4.43,0,8.87-.89,12.68-3.82h.55c3.95,3.27,7.98,3.82,12.82,3.82,5.25,0,9.82-1.03,12.41-2.46,3.68-2.05,5.45-6.07,5.45-12.48"/>
    <path id="path416" class="st0" d="M1494.33,224.06c-1.09.34-2.79.41-4.23.41s-1.98-.07-3.07-.27v-9.89h3.55c3.75,0,5.59,1.36,5.59,5.32,0,1.84-.41,3.2-1.84,4.43M1487.03,197.87c1.37-.07,2.73-.14,3.48-.14,2.93,0,4.91,1.23,4.91,4.3,0,1.77-.68,3.27-2.18,4.23-.96.2-2.46.27-4.43.27h-1.77v-8.66ZM1500.67,209.94v-.55c3.68-2.11,5.46-5.04,5.46-9.07,0-6.82-5.18-10.43-15.62-10.43-3,0-9.34.27-14.25,1.09v40.98c7.57.75,12.27.75,13.16.75,11.52,0,17.8-4.7,17.8-13.23,0-5.25-2.39-8.11-6.55-9.55"/>
    <path id="path420" class="st0" d="M1524.55,211.24c.2-1.85.68-3.68,1.5-5.12,1.43-1.09,3.41-1.23,4.3-1.23,3.27,0,4.5,1.91,4.77,6.35h-10.57ZM1530.96,196.91c-10.71,0-17.12,7.02-17.12,18.48s6.89,17.39,17.66,17.39c3.41,0,7.57-.48,11.32-1.77l.55-7.64c-4.3.82-7.1,1.02-10.5,1.02-4.91,0-7.64-1.36-8.32-6.68h20.32c.61-2.72.61-4.77.61-6.95,0-8.87-5.45-13.84-14.53-13.84"/>
    <path id="path424" class="st0" d="M1564.85,222.83l13.64-18.48-.14-6.62h-25.71l-.48,8.12h13.64l.07.48-13.98,18.21-.34,7.43h26.46l.95-8.66h-13.98l-.13-.48Z"/>
    <path id="path428" class="st0" d="M1604.2,222.35c-2.32,1.71-4.36,2.05-5.59,2.05-2.52,0-3.68-1.3-3.68-3.54,0-.82.14-1.7.75-2.8,1.16-.68,2.79-1.02,4.7-1.02.89,0,2.39.07,3.95.14l-.13,5.18ZM1600.25,196.78c-3.89,0-8.59.75-12.62,2.11l-.61,8.52c3.89-1.09,8.59-1.64,11.52-1.64,5.93,0,6.07,2.25,5.93,5.32v.14c-.82-.07-1.84-.14-3.14-.14-3.41,0-7.03.55-9.55,1.5-4.5,1.71-7.09,5.52-7.09,9.82s2.39,10.09,10.64,10.09c3.48,0,6.41-1.16,9.48-3.96l.41.14,1.02,3.27h8.59v-22.51c0-8.66-5.59-12.68-14.59-12.68"/>
    <path id="path432" class="st0" d="M1634.75,220.17v-36.96l-10.5,1.43v37.1c0,4.37.54,7.23,2.25,8.8,1.84,1.64,4.23,1.91,6.75,1.91s4.98-.34,6.34-.62l.61-8.11-5.32-.41c-.07-.96-.14-1.91-.14-3.14"/>
    <path id="path436" class="st0" d="M1656.1,211.24c.2-1.85.68-3.68,1.5-5.12,1.43-1.09,3.41-1.23,4.3-1.23,3.27,0,4.5,1.91,4.77,6.35h-10.57ZM1662.51,196.91c-10.71,0-17.12,7.02-17.12,18.48s6.89,17.39,17.66,17.39c3.41,0,7.57-.48,11.32-1.77l.55-7.64c-4.3.82-7.09,1.02-10.5,1.02-4.91,0-7.64-1.36-8.32-6.68h20.32c.61-2.72.61-4.77.61-6.95,0-8.87-5.46-13.84-14.53-13.84"/>
    <path id="path440" class="st0" d="M1695.45,223.31c-.07-.96-.14-1.91-.14-3.14v-36.96l-10.5,1.43v37.1c0,4.37.54,7.23,2.25,8.8,1.84,1.64,4.23,1.91,6.75,1.91s4.98-.34,6.34-.62l.61-8.11-5.32-.41Z"/>
    <path id="path444" class="st0" d="M1207.74,47.46c1.01,0,1.83-.83,1.83-1.84,0-1.01-.83-1.83-1.84-1.83-1.01,0-1.83.83-1.83,1.84,0,1.01.83,1.83,1.84,1.83"/>
    <path id="path448" class="st0" d="M1392.35,134.65l-4.65-.08c.02-3.98-.08-9.78-.43-13.17-1.19.03-1.86.04-2.88.24.3,5.8.4,10.14.17,15.44l10.54.16c.04-.72-.12-10.31-.29-13.46l2.77-.2c.22,4.57.22,8.9.1,14.05,1.02.18,1.69.17,2.88.17.27-3.61-.24-16.49-.27-16.98l-8.38.58s.43,9.44.43,13.25"/>
    <path id="path452" class="st0" d="M1308.8,66.81c-.37.18-1.47.18-2.21.55l1.11,1.67c.55-.37,1.65-.56,1.1-1.66-.92.18.02.77-1.09.77-.23,0-.39-.1-.39-.23-.06-.88,1.66-.35,1.47-1.09"/>
    <path id="path456" class="st0" d="M1253.13,68.13c-1.1,0-.17-.58-1.09-.76-.55,1.1.56,1.29,1.1,1.66l1.11-1.67c-.74-.37-1.85-.37-2.21-.55-.19.74,1.53.21,1.47,1.09,0,.13-.16.23-.39.23"/>
    <path id="path460" class="st0" d="M1333.07,202.08h17.62c.68-.67,1.36-1.37,2.03-2.07h-20.57c-16.84-4.06-34.25-6.1-51.72-6.1-17.49,0-34.89,2.05-51.75,6.1h-20.53c.68.69,1.35,1.38,2.04,2.06h17.57v4.9h-12.29c17.47,15.01,40.18,24.08,64.96,24.09,24.78,0,47.49-9.08,64.95-24.09h-12.31s0-4.89,0-4.89Z"/>
    <path id="path464" class="st0" d="M1212.03,111.64c.12.68.27,1.36.41,2.03l-28.66,28.49c-.12-.92-.22-1.87-.28-2.84l28.53-27.69ZM1185.24,111.29l25.53-17.73c-.05.67-.06,1.35-.09,2.02l-26.01,18.51c.16-.94.35-1.88.57-2.8M1197.56,80.35l17.93-7.57c-.26.62-.5,1.28-.73,1.89l-18.69,8.17c.48-.83.98-1.67,1.48-2.49M1216.67,57.87l8.39-1.65c-.38.51-.8,1.02-1.16,1.54l-9.28,1.95c.67-.63,1.37-1.24,2.05-1.84M1348.97,118.65v3.1s-137.11.01-137.11.01v-3.12h137.11ZM1266.17,113.15c-.28-.03-.57-.07-.87-.11-.69-6.87-1.84-12.05-3.89-16.13.32-2.13.25-5.12-.47-7.73,2.09,2.34,4.54,3.86,7.19,4.78,3.18,1.1,1.32,2.27-.36,2.26-1.69.01-3.3-.25-4.26-.96,1.26,2.08,3.74,3.81,6.36,4.57,1.79.52,1.69,1.66.04,1.67-.08-.01-.18,0-.27-.03-1.9-.12-4.58-1.04-6.97-2.55,4.61,6.45,11.8,9.21,19.17,9.95,3.85.37,3.7,3.69-.75,3.86-5.34.18-9.99-.35-15.32-3.69,2.88,3.52,9.89,6.35,15.85,7.53h-11c.03-.63-.21-3.07-4.45-3.42M1267.14,78.33l-4.05,10.19c-.22-.21-.42-.42-.62-.65l-.53-.59,4.24-9.35c.31.14.63.27.95.4M1273.93,80.31l-2.42,13.54c-.16-.26-.37-.5-.64-.71-.23-.2-.5-.37-.82-.53l2.86-12.5c.33.08.68.14,1.02.21M1281.58,106.86c-.78-.09-1.53-.19-2.27-.34l.61-25.61c.18,0,.35,0,.53,0,.17,0,.34,0,.53,0l.61,25.94ZM1258.79,69.54c.04-1.73.2-3.42.48-5,5.21,5.83,12.75,9.51,21.17,9.5,8.39.01,15.93-3.68,21.14-9.46.27,1.59.42,3.26.46,5.01-5.74,5.17-13.3,8.32-21.59,8.32-8.34,0-15.93-3.17-21.66-8.38M1260.79,59.17c4.3,6.25,11.52,10.36,19.66,10.37,8.13,0,15.3-4.11,19.61-10.31.24.56.45,1.15.64,1.76-4.65,6.12-12,10.09-20.26,10.09-8.29,0-15.65-4-20.29-10.17.18-.59.4-1.17.63-1.75M1270.11,48.39c1.21,4.58,5.39,7.98,10.35,7.98,4.94,0,9.11-3.39,10.33-7.95,2.47,1.42,4.56,3.27,6.26,5.47-3.03,6.09-9.32,10.3-16.59,10.31-7.29,0-13.58-4.22-16.64-10.35,1.72-2.2,3.8-4.05,6.29-5.46M1275.71,36.02c.04-.63-.15-1.83-.39-2.43,1.63-.1,3.47-.13,5.14-.13,1.66,0,3.48.04,5.14.13-.28.59-.44,1.79-.43,2.44-1.42-.71-3.02-1.13-4.71-1.12-1.72,0-3.31.41-4.75,1.12M1293.76,78.33c.31-.13.64-.26.95-.4l4.24,9.36-.53.59c-.2.23-.41.45-.63.65l-4.03-10.19ZM1286.96,80.31c.35-.05.69-.12,1.03-.21l2.85,12.49c-.32.18-.59.34-.82.55-.26.21-.48.45-.64.72l-2.43-13.55ZM1299.88,89.18c-.71,2.61-.8,5.6-.45,7.73-2.05,4.07-3.21,9.26-3.89,16.13-.29.04-.58.1-.88.1-3.27.27-4.14,1.79-4.37,2.75-1.89-.22-3.86-.48-5.56-.81,3.06-1.03,5.25-2.13,6.88-3.18,1.64-1.07,2.68-2.05,3.45-2.85-2.63,1.56-5.61,2.65-8.78,3.19.29-.47.45-1.02.45-1.51.03-1.04-.45-2.27-1.83-3.11,6.15-1.6,9.6-4.25,13.27-8.71-2.39,1.5-5.07,2.41-6.97,2.54-.11.03-.19.03-.28.02-1.64,0-1.77-1.12.05-1.64,2.61-.78,5.09-2.5,6.34-4.59-.95.71-2.59.96-4.26.96-1.67,0-3.56-1.17-.38-2.25,2.68-.91,5.12-2.44,7.21-4.79M1346.07,74.66c-.25-.66-.48-1.27-.72-1.91l17.97,7.61c.5.81,1,1.65,1.49,2.47l-18.74-8.17ZM1335.77,56.21l8.45,1.67c.71.59,1.4,1.21,2.07,1.83l-9.34-1.94c-.38-.53-.79-1.05-1.18-1.56M1376.23,114.09l-26.08-18.51c-.03-.7-.05-1.38-.09-2.06l25.6,17.76c.2.93.39,1.87.57,2.81M1377.12,142.18l-28.73-28.55c.16-.66.3-1.36.43-2.01l28.57,27.72c-.08.97-.16,1.91-.28,2.84M1350.25,145.05l-9.24-13.07v-3.23s.28,0,.28,0l11.85,16.29h-2.89ZM1338.94,133.4h-24.73c-2.12-1.99-4.52-3.53-7.1-4.66h31.84s0,4.66,0,4.66ZM1331.13,145.04c-.65-1.63-2.24-2.79-4.08-2.79-1.86,0-3.44,1.17-4.08,2.79h-8.14s0-9.58,0-9.58h19.54s1.24,9.58,1.24,9.58h-4.48ZM1324.73,154.6v-7.97c-.01-1.28,1.05-2.33,2.33-2.32,1.26,0,2.31,1.05,2.32,2.31v7.96c-.01,1.28-1.04,2.33-2.33,2.32-1.26,0-2.31-1.05-2.32-2.31M1337.07,156.19l1.9,14.59h-24.14s.01-14.59.01-14.59h8.15c.64,1.64,2.22,2.8,4.08,2.8,1.84,0,3.42-1.16,4.06-2.8h5.94ZM1339.59,175.66h-24.76v-2.83s24.39.01,24.39.01l.37,2.81ZM1345.36,185.17h-30.53v-7.45h30.53s0,7.45,0,7.45ZM1281.45,185.16v-28.98h31.33s0,28.99,0,28.99h-31.33ZM1248.06,185.16v-28.98h31.32v28.99h-31.32ZM1246.01,185.16h-30.54s0-7.43,0-7.43h30.54s0,7.43,0,7.43ZM1221.61,172.84h24.4s0,2.82,0,2.82h-24.76l.37-2.82ZM1223.77,156.17l5.93.02c.65,1.63,2.22,2.8,4.08,2.79,1.86,0,3.45-1.17,4.08-2.81h8.15s-.01,14.59-.01,14.59h-24.14s1.92-14.59,1.92-14.59ZM1236.11,146.63v7.96c-.01,1.28-1.03,2.33-2.33,2.32-1.26,0-2.31-1.05-2.32-2.33v-7.95c.01-1.28,1.04-2.33,2.33-2.32,1.3,0,2.31,1.03,2.32,2.31M1225.21,145.04l1.22-9.58h19.57s-.01,9.59-.01,9.59h-8.15c-.64-1.64-2.22-2.8-4.08-2.8-1.86-.01-3.42,1.17-4.08,2.79h-4.47ZM1221.87,128.74h31.85c-2.57,1.12-4.98,2.68-7.1,4.65h-24.76v-4.65ZM1216.2,126.68v-2.88h128.41s.01,2.86.01,2.86h-128.43ZM1312.77,145.05h-31.33s.01-10.19.01-10.19c.16-.14.34-.3.5-.44.42-.35.84-.72,1.27-1.02,3.98-3.01,8.78-4.63,13.84-4.67h.1c5.03.03,9.87,1.65,13.84,4.67.41.31.85.66,1.27,1.01.17.15.33.29.5.45v10.18ZM1322.66,147.11v7h-84.5v-7h84.5ZM1273.7,128.75h13.41c-2.43,1.05-4.68,2.49-6.68,4.28-2.04-1.81-4.32-3.23-6.73-4.28M1277.6,133.41c.44.3.85.66,1.27,1.01l.51.45v10.18s-31.33,0-31.33,0v-10.18c.16-.14.34-.29.52-.45.39-.34.81-.71,1.26-1.02,3.96-3.01,8.79-4.64,13.83-4.66h.1c5.06.03,9.87,1.65,13.84,4.67M1210.64,145.04h-2.91s11.85-16.3,11.85-16.3h.23s0,3.31,0,3.31l-9.17,12.99ZM1256.77,72.95c-.67-.01-1.37.16-2.15.47-.75-.78-1.04-1.47-1.13-2.3.26.1.5.17.74.21.38.07.73-.3.73-.71.04-1.82.39-2.77.73-3.32.39-.03.71-.18.94-.32.08-.07.14-.15.22-.23-.18,1.98-.19,4.04-.08,6.19M1247.28,64.67c.69-2.95,3.02-3.83,5-3.65,2.02.19,4.2,1.56,4.21,3.79,0,.46-.13,1.02-.47,1.27-.38.24-.91.11-1.3-.07-2.13-.9-4.71-1.36-7.45-1.35M1244.18,68.61c.08-.86.14-1.76.14-2.68,2.04-.25,4.01-.23,5.85.02-.84,1-2.65,2.47-5.99,2.66M1304.2,66.98c.2.15.52.3.92.31.33.54.71,1.52.73,3.33.02.41.34.77.7.71.25-.05.51-.11.75-.22-.07.84-.35,1.51-1.12,2.3-.79-.31-1.48-.48-2.16-.48.12-2.15.1-4.21-.08-6.19.09.09.14.18.25.23M1308.51,61.03c.17-.03.34-.02.5-.03,1.45,0,2.97.59,3.88,2.12-3.66,0-6.75.91-8.58,2.01,0-.12-.02-.21-.02-.32.02-2.21,2.19-3.59,4.21-3.78M1313.29,63.91c.06.23.17.48.22.75-2.72,0-5.3.47-7.43,1.36-.4.17-.93.31-1.28.07-.09-.08-.17-.14-.2-.21,1.73-1.1,4.87-2.05,8.69-1.97M1316.49,65.94c0,.46.01.92.03,1.39-1.71-.21-2.57-.97-2.97-1.57.94.03,1.94.06,2.94.19M1316.63,68.61c-3.35-.18-5.16-1.67-6-2.66.67-.1,1.35-.14,2.03-.18.41.78,1.43,2.09,3.93,2.32.01.18.02.36.05.51M1181.89,147.1h47.49v7.01s-46.1,0-46.1,0c2.81,12.01,7.82,23.19,14.55,33.11h165.2c6.74-9.91,11.75-21.09,14.56-33.11h-46.14v-7h47.54c.83-5.16,1.26-10.44,1.26-15.83.01-42.78-27.06-79.35-64.94-93.52-4.22-1.59-8.57-2.89-13.05-3.86,4.32,1.4,9.11,3.69,13.95,6.87,19.3,12.73,38.98,39.23,29.48,75.45-.05.13-.09.23-.12.36h-2.84c.03-.19.06-.41.12-.63.25-.85.42-1.48.74-3.03-.87,1.32-1.87,2.57-2.95,3.66h-4.68c1.14-1.5,1.82-3.1,2.19-4.93-1.36,2.05-2.78,3.73-4.35,4.93h-3.42s.1-.11.16-.14c1.57-1.03,5.28-5.22,5.22-10.14-1,4.17-4.39,8.14-8.11,10.28h-3.8c.05-.05.1-.06.16-.08,1.98-.95,5.93-3.56,6.98-5.88-3.32,2.42-6.98,4.48-10.34,5.94h-5.76c4.83-2.1,9.03-4.61,11.01-9.19-5.02,4.23-10.89,7.57-19.68,9.19h-13.92c-.07-.59.75-1.2,2.56-1.37,12.29-1.03,28.53-6.83,32.21-17.16-6.19,6.58-15.3,11.75-22.9,11.23-2.84-.21-3.57-2.41-.39-2.93,10.24-1.67,20.13-7.59,21.41-16.95-1.92,5-5.61,8.18-10.05,8.89-1.61.25-2.82-.86-.47-1.62,2.78-.91,6.59-3.73,6.9-6.89-1.3,2.54-3.92,3.49-5.68,3.55-1.42.04-1.35-.72-.05-1.25.31-.13.62-.32.93-.54,1.89-1.49,3.06-4.9,3.05-9.89-.01-.38-.01-.75-.03-1.18-4.47,2.94-8.21,6.25-8.09,9.92.13,3.3-.37,8.79-3.13,12.68-1.65.54-3.37.96-5.12,1.25-2.93.49-3.9,2.15-3.82,3.58.09,1.88,1.85,3.27,4.4,3.43.23,0,.48.03.71.03-2.57.69-5.23,1.21-7.84,1.54,1.16-10.24,2.99-15.74,7.55-22.06l-.32-.15c-1.41,1.25-2.59,2.65-3.6,4.25-.08-2.18.24-4.77,1.09-6.84.17.17.32.35.5.5l.29.26.36-.09c3.01-.7,7.84-3.51,11.15-6.33l-.41-.51c-3.14,2.44-7.75,4.62-10.72,5.28-1.19-1.03-2.54-2.37-1.71-6.8l-.32-.09c-.51,1.46-.76,2.69-.76,3.75-.75-.24-1.25-1.41-.89-5.2.22-2.27.56-2.77,2.29-4.04,1.72-1.25,3.32-.96,4.8-.29.81.37.59.77,0,.74-.59-.07-1.68,0-1.68,0,1.11.58,1.57.91,1.95,1.22.38.33.34.83-.5.65-.82-.19-1.72-.46-2.34-.56.66.49,1.1.86,1.53,1.38.31.37-.15.79-.67.4-.57-.4-1.53-.73-2.39-.82.68.34,1.09.67,1.44.99.34.29,0,.71-.47.43-.7-.38-2.35.26-3.21-.22l.27.64c.4.34.93.46,1.79.46h.36c.12.01.2.02.27.05.25.14.53.23.78.23.49,0,.91-.24,1.15-.6.13.05.26.07.41.06.56,0,1.05-.31,1.28-.81.08-.15.12-.36.13-.53.75,0,1.2-.46,1.34-.89.2-.46.07-.99-.26-1.43.16-.15.31-.39.36-.61.06-.29.1-.96-.74-1.51.36-.48.66-1.09.83-1.75.53-.07,1.68-.25,2.12-.07-.06.21-.42.37-.7.57v.26c.52-.08.92-.33,1.09-.65.12-.29.38-.9-.16-.85-.57.01-1.59-.05-2.18-.18.01-.15.02-.3.01-.48.24-.22.43-.5.53-.84l-.2-.08c-.29.3-.81.5-1.63.57-.15-1.41-.38-2.43-.65-3.14.14-.05.27-.09.42-.15.98-.41,2.09-.72,3.27-.93.44.58,1.25,1.48,2.61,2.19.41,1.51-.23,3.87-1.02,4.75-.27.11-.51.24-.75.42-1.14.83-1.69,2.16-2,4.03-.69.11-1.41.55-1.88,1.41l.23.19c.27-.68,1.55-.76,2.55-.57.23-1.77.9-3.44,1.84-4.14.86-.63,2.11-1.02,3.54-.74l.09-.48c-.75-.31-1.51-.46-2.22-.41.62-1.58.62-2.83.21-4.16,1,.44,2.24.75,3.77.82.29,1.88.89,3.64,2.07,5.35l.91-.62h.02s0,0,0,0c.38-1.97.57-3.84.57-5.63,0-11.46-7.27-19.08-12.46-22.04,6.14,5.27,11.55,12.49,10.61,25.17-.7-1.88-.92-3.88-.9-6.16,0-.26-.21-.51-.48-.54-.82-.11-1.64-.2-2.47-.21-.75-3.87-3.82-4.98-6.18-4.77-2.09.18-4.3,1.45-5,3.55-1.63-8.17-6.27-14.47-13.57-17.87-7.19-3.36-5.03-7.58-1.66-7.21-.95-1.23-1.35-2.85-.63-4.16.55-1.07,1.85-1.92,4.2-2.11-1.57-.18-3.17-.33-4.75-.41-2.2-.18-4.39-.23-6.61-.24-2.23,0-4.45.07-6.66.23-1.59.08-3.16.23-4.71.42,2.32.21,3.59,1.04,4.16,2.12.72,1.31.32,2.94-.62,4.16,3.37-.38,5.52,3.85-1.67,7.2-7.29,3.41-11.93,9.71-13.56,17.87-.7-2.08-2.89-3.35-5.01-3.55-2.35-.2-5.43.89-6.18,4.78-.82,0-1.63.09-2.46.2-.27.03-.49.27-.46.54,0,2.3-.21,4.3-.93,6.21-.93-12.71,4.48-19.97,10.63-25.23-5.98,3.43-14.76,13.04-11.9,27.7l.94.6c1.18-1.72,1.78-3.47,2.08-5.35,1.53-.07,2.74-.39,3.75-.82-.41,1.32-.42,2.59.18,4.16-.68-.04-1.43.11-2.19.42l.09.49c1.44-.29,2.7.1,3.55.73.98.69,1.61,2.39,1.85,4.14,1.01-.19,2.27-.11,2.57.57l.2-.2c-.46-.85-1.19-1.29-1.88-1.4-.32-1.86-.86-3.19-2.01-4.03-.22-.16-.48-.29-.74-.41-.76-.88-1.43-3.24-1.02-4.75,1.37-.7,2.2-1.6,2.62-2.2,1.17.22,2.28.53,3.26.95.15.06.29.11.41.14-.28.71-.5,1.73-.64,3.15-.81-.08-1.33-.27-1.62-.58l-.21.08c.1.34.29.62.54.84-.02.19-.02.33.01.49-.59.11-1.61.19-2.16.16-.57-.04-.32.57-.16.86.14.31.57.56,1.06.64v-.26c-.28-.19-.63-.35-.68-.57.43-.19,1.61,0,2.1.07.17.67.48,1.28.83,1.76-.84.54-.79,1.2-.73,1.49.04.23.17.47.36.63-.35.43-.45.95-.27,1.41.14.44.58.87,1.34.9-.01.17.06.38.13.53.22.5.73.82,1.29.81.15,0,.27-.02.39-.07.25.36.69.58,1.13.59.3,0,.57-.08.81-.22.06-.03.15-.05.25-.05h.38c.85,0,1.39-.13,1.79-.46l.28-.66c-.88.48-2.5-.16-3.22.25-.42.27-.79-.15-.44-.45.32-.31.76-.65,1.43-.98-.87.08-1.85.41-2.36.82-.56.4-1.01-.03-.72-.39.44-.52.88-.88,1.53-1.38-.6.1-1.5.37-2.34.57-.81.19-.85-.31-.47-.65.37-.31.82-.65,1.93-1.21,0,0-1.09-.07-1.66-.01-.59.05-.83-.35,0-.72,1.48-.66,3.06-.96,4.81.3,1.73,1.28,2.06,1.75,2.27,4.03.37,3.78-.11,4.95-.87,5.19,0-1.07-.24-2.29-.76-3.75l-.31.08c.81,4.43-.51,5.78-1.72,6.82-2.96-.67-7.56-2.85-10.71-5.29l-.4.51c3.3,2.82,8.12,5.63,11.14,6.34l.35.08.3-.25c.19-.15.35-.3.52-.48.84,2.04,1.16,4.64,1.06,6.81-1-1.59-2.19-2.98-3.59-4.25l-.31.14c4.57,6.33,6.4,11.84,7.54,22.08-2.61-.33-5.27-.85-7.84-1.54.26-.02.49-.02.73-.05,2.53-.17,4.31-1.55,4.4-3.43.05-1.43-.9-3.09-3.81-3.57-1.77-.3-3.48-.72-5.14-1.26-2.73-3.89-3.26-9.38-3.13-12.69.12-3.66-3.61-6.98-8.09-9.91-.03.42-.02.79-.02,1.19-.02,4.98,1.17,8.38,3.05,9.87.29.24.6.43.91.54,1.3.55,1.39,1.3-.03,1.26-1.75-.06-4.39-1.01-5.68-3.56.3,3.19,4.11,6,6.89,6.9,2.36.77,1.14,1.88-.47,1.63-4.45-.71-8.13-3.9-10.05-8.89,1.28,9.35,11.16,15.26,21.42,16.94,3.18.52,2.45,2.72-.39,2.92-7.59.53-16.72-4.63-22.91-11.22,3.67,10.32,19.92,16.13,32.21,17.16,1.81.17,2.63.79,2.56,1.38h-13.91c-8.78-1.63-14.67-4.98-19.68-9.2,1.98,4.56,6.18,7.08,11.01,9.19h-5.75c-3.39-1.47-7.05-3.54-10.37-5.97,1.04,2.33,4.99,4.95,6.98,5.88.06.02.11.04.17.09h-3.79c-3.73-2.11-7.12-6.11-8.13-10.28-.06,4.91,3.67,9.1,5.23,10.12.06.05.13.1.19.15h-3.45c-1.57-1.2-2.99-2.88-4.35-4.94.38,1.84,1.07,3.43,2.2,4.94h-4.66c-1.11-1.09-2.11-2.33-2.97-3.67.3,1.55.48,2.18.73,3.04.07.23.11.43.14.62h-2.86c-.03-.12-.07-.22-.11-.35-9.48-36.18,10.13-62.66,29.42-75.38,4.77-3.18,9.56-5.51,13.86-6.9-4.45,1.01-8.79,2.3-13.01,3.88-37.8,14.22-64.79,50.75-64.8,93.47-.01,5.37.42,10.65,1.25,15.81"/>
    <path id="path468" class="st0" d="M1280.44,257.6c-69.64,0-126.3-56.68-126.31-126.32.01-69.65,56.68-126.3,126.32-126.31,69.65,0,126.3,56.66,126.31,126.32-.01,69.65-56.66,126.3-126.32,126.31M1280.44,2.07c-71.25.01-129.22,57.96-129.21,129.21,0,71.25,57.96,129.22,129.2,129.21,71.25,0,129.22-57.95,129.23-129.2-.01-71.25-57.97-129.22-129.22-129.22"/>
    <path id="path472" class="st0" d="M1215.09,29.61l1.87,3.07c5.09-3.07,11.02-6.31,15.77-8.88,1.53-.86,1.53,0,2.04,1.2,0,0-4.41,3.75-6.96,5.98-1.69,1.36-2.89,3.58-1.36,5.97l1.35,2.23,3.57-2.22-1.36-2.39-2.03,1.37c-.51-.86-.68-1.71,2.38-3.93l8.32-6.15-2.04-4.11c-1.35-2.74-2.04-2.57-4.24-1.54-4.75,2.39-11.03,5.81-15.1,8.2l-.84-1.37c-.68-1.02-1.01-1.19-1.53-.85-1.19.68-2.03,1.36-2.88,2.05l1.52,2.39,1.53-1.02Z"/>
    <path id="path476" class="st0" d="M1244.1,21.58c-2.04,2.73-.51,6.84.67,10.43,1.87-.85,2.88-1.36,5.26-2.22l-1.53-2.9-2.88,1.19c-.51-1.71-1.18-4.62.34-6.15,10.85,1.71,15.1,1.02,18.65,4.45l.85-.35c-.67-2.57-2.03-3.59-4.4-4.61,2.36-2.05,4.06-5.13,2.54-9.57-2.37.16-4.24.51-6.11.85l.51,3.25c1.53-.34,2.71-.51,4.24-.69-.17,1.71-.35,3.59-3.4,5.13-7.29-1.89-12.89-1.72-18.82-3.77l-.51.52c.85,2.56,2.21,3.59,4.58,4.44"/>
    <path id="path480" class="st0" d="M1268.87,10.99l.17,3.59c6.11-.17,12.72-.18,18.15,0,1.7,0,1.19.86,1.19,2.05,0,0-5.6,1.2-8.99,1.87-2.03.35-4.07,1.71-4.07,4.45v2.74c1.19-.17,2.71-.17,4.23,0,.17-.85.35-1.54,0-2.91h-2.38c.01-.85.17-1.71,4.08-2.22l10.01-1.19.35-4.61c.17-3.07-.51-3.24-3.05-3.42-5.26-.34-12.39-.34-17.14-.18v-1.7c0-1.03-.34-1.37-.85-1.37l-3.57.35.17,2.73,1.7-.17Z"/>
    <path id="path484" class="st0" d="M1316.69,27.75c-.84-1.19-1.52-1.87-2.37-2.73l2.71-2.39c1.02-.85,1.53-2.05,2.04-3.41.51-1.37-.17-2.05-1.19-2.39-1.69-.69-1.86-.68-4.07-1.37l-1.18,3.59,3.56,1.19c-.34,1.37-1.36,2.74-2.72,3.76l-9.67-7.69-.68-3.08c-1.85-.51-3.22-.68-5.42-1.03l-.85,3.59,5.76,1.2c3.73,3.59,7.29,7.18,11.02,11.11-5.93-1.88-12.04-3.42-17.98-4.62-.51,1.2-.85,2.4-1.01,3.42,6.61,1.37,14.24,3.25,20.35,5.48.85-1.54,1.18-2.74,1.69-4.62"/>
    <path id="path488" class="st0" d="M1333.49,31.35c-.01-1.53-3.06-1.71-2.56,1.03,1.36,1.02,2.88.34,2.56-1.03"/>
    <path id="path492" class="st0" d="M1318.9,33.56c5.25,2.57,13.4,6.85,18.65,10.78l2.54-3.08c-.84-.68-1.86-1.36-3.05-2.05,3.9-.85,4.07-1.19,5.42-3.07l1.36-1.87c1.53-2.23,1.02-3.42-.68-4.62-5.59-3.93-10.35-6.67-17.12-9.57l-1.69,3.25c6.78,2.91,10.85,5.3,16.78,9.58l-1.53,2.56c-1.01,1.54-1.86,1.89-4.57,2.74-4.58-2.74-9.33-5.47-14.42-7.69l-1.69,3.07Z"/>
    <path id="path496" class="st0" d="M1394.09,148.52l2.4,1.14c-.16,1.38-.32,2.57-.64,3.61l-2.55.03.79-4.79ZM1384.01,143.37c2.57,1.49,4.78,2.49,7.53,4.15l-.93,6-8.48.47-.47,3.09,16.62-1.11c.48-2.22.94-4.8,1.07-7.7l-15.04-7.98-.3,3.08Z"/>
    <path id="path500" class="st0" d="M1376.09,173.84c3.73,2.05,6.45,3.08,9.5,4.62l1.19-2.74c-2.37-1.36-4.41-2.05-6.79-3.41,1.19-2.91,1.92-4.9,2.94-7.98l12.38,3.08.85-3.08-15.26-3.77c-1.53,4.62-3.11,8.83-4.81,13.27"/>
    <path id="path504" class="st0" d="M1367.2,189.45l2.37,1.88c2.55-3.58,4.42-6.66,6.28-9.91l3.56,1.88c-1.7,3.58-3.57,6.67-5.77,10.59l2.37,1.36,6.11-10.77,2.2,1.2c-1.86,4.62-3.39,6.84-5.77,11.11l2.2,1.53c3.05-4.44,5.09-8.53,7.47-13.84l-13.91-7c-2.21,4.44-4.41,7.69-7.13,11.96"/>
    <path id="path508" class="st0" d="M1362.79,195.43l8.82,7.01-7.97.51,1.02,8.37-9.16-7.86-2.04,2.22,12.38,10.27c.85-.69,1.7-1.54,2.37-2.56l-1.18-7.69,8.14-.17,1.7-2.73-12.38-9.75-1.69,2.39Z"/>
    <path id="path512" class="st0" d="M1356.16,55.48l5.11-4.58c-.5-.68-1.17-1.38-2.02-2.24-1.54,1.7-4.78,4.59-7.16,6.96,3.54,3.27,5.61,5.58,7.97,8.15l11.93-9.66-2.02-2.24c-3.25,2.71-6.48,5.26-9.72,7.81l-4.1-4.2Z"/>
    <path id="path516" class="st0" d="M1371.28,80.59l2.38-1.72c-2.38-4.27-4.24-7.17-6.44-10.42l3.73-2.57c2.21,3.94,4.07,6.5,6.27,10.6l2.38-1.36-6.28-10.6,2.21-1.54c1.36,2.05,5.09,7.69,6.44,10.77l2.55-1.54c-3.22-5.99-5.43-9.07-8.66-13.68l-12.71,9.23c2.88,3.93,5.59,8.38,8.14,12.83"/>
    <path id="path520" class="st0" d="M1386.5,81.44c2.2,3.41,3.05,6.5,3.89,8.88.68,2.06-2.03,2.58-2.55,1.05-1.02-2.91-2.21-5.82-3.73-8.72l2.39-1.2ZM1374.79,87.43l6.95-3.42c1.02,2.04,1.87,3.41,2.55,5.47l-6.45,5.63,1.19,3.25,6.62-6.33c2.37,4.96,8.99,2.06,7.29-2.89-1.53-4.63-2.53-6.67-5.26-11.28-4.58,2.05-9.32,4.77-14.09,6.99l1.2,2.57Z"/>
    <path id="path524" class="st0" d="M1383.63,116.57c6.09-.72,10.3-1.55,15.53-2.41l-.6-2.72c-4.39.84-7.6,1.29-12.32,1.97-.6-2.55-1.03-5.27-1.8-7.81,3.52-1.32,7.38-2.64,11.58-3.81l-.77-2.88c-5.71,1.9-8.56,2.68-14.59,4.94,1.17,4.41,2.16,8.81,2.97,12.73"/>
    <path id="path528" class="st0" d="M1337.53,219.91l-3.83,2.42,1.92,3.15,2.61-1.61c.52-.32,1.04-.64,1.53.06l1.6,2.45,1.09-1.84-2.88-4.21c-.49-.71-.98-1.06-2.02-.42"/>
    <path id="path532" class="st0" d="M1325.77,226.21c-3.64,1.72-9.69,4.36-16.76,6.61l1.2,3.65c8.26-2.55,11.73-4.28,16.58-6.28,1.21-.46,2.07-.77,2.85.8l4.19,9.08,2.14-2.47-5.16-9.98c-1.25-2.46-2.78-2.52-5.03-1.42"/>
    <path id="path536" class="st0" d="M1302.74,234.41l-4.79,1.02.54,3.78,3.59-.73c1.02-.13,1.53-.11,1.82,1.27.71,3.61.82,5.16,1.67,9.81l2.43-1.45-2.62-11.73c-.44-1.89-1.28-2.26-2.65-1.97"/>
    <path id="path540" class="st0" d="M1292.95,236.17l-4.41.09.1,3.76,3.9.07c-.05,2.22-.1,4.78-.29,5.81-3.44,2.5-6.32,2.62-9.03,2.57l-3.57-.07c.72-2.21,1.79-4.58,2.85-6.95.36-.86.7-1.36,2.06-1.33h1.02s-.09-3.74-.09-3.74c-2.38.13-4.07.09-6.96.03l-.08,3.76,2.88.05-2.63,4.4c-2.1,3.37-2.78,3.53-6.34,3.12l.3-6.66c.01-.52.19-1.03,1.04-1.01l1.87.04-.1-3.76c-1.2-.03-4.24-.26-6.79-.47l-.24,3.76,2.03.21-.72,11.1c4.91.61,12.19,1.09,17.12.49,3.77-1.97,4.98-2.98,7.57-5.66.37-1.53.25-4.09.32-7.69.02-1.37-.47-1.88-1.83-1.92"/>
    <path id="path544" class="st0" d="M1262.02,235.06c-7.12-1.53-9.32-2.05-14.08-3.42l.51-1.71c.34-1.02-.17-1.37-.68-1.53l-3.05-1.02-1.01,2.9,1.69.52-1.02,3.41c6.11,1.88,12.05,3.25,15.6,3.94,2.55.51,2.04.34,1.7,2.39,0,0-5.42.34-8.14.52-2.21.17-4.41.51-5.26,3.07l-.84,2.56c1.36.51,2.37.86,4.07,1.2l.85-2.57-2.2-.68c.16-.85,1.01-1.03,1.69-1.03l12.05.17.85-4.79c.51-3.08-.34-3.41-2.71-3.93"/>
    <path id="path548" class="st0" d="M1235.87,233.62l-2.41,4.43c-7.28-3.11-11.49-5.53-17.75-10.01l1.55-2.55c1.01-1.53,1.88-1.88,4.58-2.72l12.7,7.08c1.85,1.03,2.35,1.73,1.33,3.77M1235.9,226.44c-5.24-2.59-11.33-5.88-16.56-9.83l-2.57,3.07c.84.68,1.85,1.38,3.04,2.07-3.9.82-4.09,1.17-5.45,3.05l-3.42,4.58c8.11,5.86,13.7,8.97,23.84,13.3l3.44-6.49c2.9-5.95,2.91-7.16-2.33-9.75"/>
    <path id="path552" class="st0" d="M1191.74,199.56c-1.67-2.42-4-5.52-5.34-7.59-3.18-4.64,1.43-6.83,3.6-3.54l5.67,8.26-3.93,2.87ZM1188,202.25c-3.03-3.79-4.19-5.34-6.86-9.47-1.17-1.73.54-2.91,1.88-1.03,2.66,3.81,4.51,6.05,6.85,9.15l-1.86,1.35ZM1182.72,188c-3.9-.05-6.49,3-2.97,8.16,2.33,3.46,5.83,8.12,7.68,10.17l11.99-9.08-7.02-10.68c-3-4.47-9.13-2.32-9.68,1.43"/>
    <path id="path556" class="st0" d="M1181.28,164.4l-2.73,1.16c1.82,4.46,3.3,7.55,4.96,11.17l-3.75,1.84c-1.82-3.95-3.65-7.4-4.96-11.51l-2.56,1.16,4.79,11.51-2.39,1.34c-1-1.89-3.97-8.93-4.95-11.85l-2.39,1c2.13,6.52,3.96,9.96,6.28,14.78,5.12-2.51,8.53-4.19,13.65-7.2-1.99-4.12-3.97-8.93-5.95-13.39"/>
    <path id="path560" class="st0" d="M1164.97,151.56c2.36,1.4,10.6,7.48,12.79,9.21l2.21-.83c-1.3-4.63-2.44-9.26-3.23-14.39l-2.88.48c.31,3.25,1.11,6.85,1.75,9.59l-11.62-7.83-2.72.49c.78,5.65,2.42,10.97,3.89,16.11l2.9-.99c-1.15-3.61-2.12-7.2-3.09-11.83"/>
    <path id="path564" class="st0" d="M1165.85,132.27l-2.51-1.92.04-3.07,2.55-1.34-.08,6.33ZM1176.32,139.05c-2.88-1.91-4.89-3.13-7.75-5.39.04-3.41.24-6.15.44-8.9l7.34-4.01.2-3.4c-5.8,3.01-11.09,5.51-16.05,8.53-.19,2.4-.2,3.93-.05,5.45,6.89,5.56,13.63,10.08,16.15,11.31l-.29-3.59Z"/>
    <path id="path568" class="st0" d="M1180.66,98.75l-9.13-3.18-1.04,2.9,6.41,2.3c-.88,2.89-1.93,6.29-2.48,9.54l-12.19-2.01-.54,3.07,15.23,2.39c1.08-5.29,2.15-9.55,3.73-15"/>
    <path id="path572" class="st0" d="M1189.02,79.02l-2.53-1.22c-2.25,4.07-3.99,7.81-5.73,12.24l-3.88-1.76c1.57-4.25,3.83-8.67,5.73-12.58l-2.53-1.22c-2.25,3.56-4.34,8.83-6.08,12.58l-1.86-.88c1.92-5.27,3.3-8.17,5.74-12.92l-2.53-1.23c-2.77,4.93-5.21,10.38-7.31,15.99,4.9,2.11,9.62,4.03,14.69,5.8,1.58-4.77,4.19-10.21,6.28-14.81"/>
    <path id="path576" class="st0" d="M1200.24,62.23l-8.75-6.77-1.72,2.55,6.39,4.69-5.33,7.46-10.28-6.78-1.56,2.72c4.89,3.13,8.09,5.39,12.97,8.18,2.59-4.07,5.69-7.97,8.27-12.04"/>
    <path id="path580" class="st0" d="M1350.22,44.7c.99-.21,1.63-1.18,1.43-2.17-.21-.99-1.18-1.63-2.17-1.43-.99.21-1.63,1.18-1.43,2.17.21.99,1.18,1.63,2.17,1.43"/>
    <path id="path584" class="st0" d="M1350.94,217c-1.01-.02-1.86.78-1.88,1.79-.02,1.01.78,1.85,1.79,1.88,1.01.02,1.85-.78,1.88-1.79.02-1.01-.78-1.85-1.79-1.88"/>
    <path id="path588" class="st0" d="M1204.05,212.09c-1.01.13-1.72,1.05-1.59,2.05.13,1.01,1.05,1.72,2.05,1.59,1.01-.13,1.72-1.04,1.59-2.05-.13-1.01-1.04-1.72-2.05-1.59"/>
    <path id="path590" class="st0" d="M1281.03,58.25h-1.16v4.06h1.16v-4.06Z"/>
    <path id="path594" class="st0" d="M1277.75,57.97l-1.12-.3-1.05,3.92,1.12.3,1.05-3.92Z"/>
    <path id="path598" class="st0" d="M1272.64,60.37l2.03-3.52-1.01-.58-2.02,3.52,1.01.58Z"/>
    <path id="path602" class="st0" d="M1269.1,57.86l2.86-2.88-.82-.82-2.86,2.88.82.82Z"/>
    <path id="path606" class="st0" d="M1269.25,51.47l-3.51,2.04.59,1,3.51-2.04-.58-1Z"/>
    <path id="path610" class="st0" d="M1285.31,61.59l-1.05-3.92-1.12.3,1.05,3.92,1.12-.3Z"/>
    <path id="path614" class="st0" d="M1289.27,59.79l-2.03-3.52-1.01.58,2.02,3.52,1.01-.58Z"/>
    <path id="path618" class="st0" d="M1292.62,57.04l-2.86-2.88-.82.82,2.87,2.88.82-.82Z"/>
    <path id="path622" class="st0" d="M1295.15,53.51l-3.51-2.04-.58,1,3.51,2.04.58-1Z"/>
  </g>
</svg>